<svg width="27" height="25" viewBox="0 0 27 25" fill="none" xmlns="http://www.w3.org/2000/svg">
<path d="M13.2511 0.0216505C12.5727 -0.387357 10.2124 5.10016 9.11708 7.89504C8.05706 8.91754 -0.104977 7.89504 0.00102333 9.73559C0.107024 11.5761 5.93706 15.8707 6.25506 16.1775C6.57306 16.4842 3.39304 24.9711 5.51305 24.8689C7.20907 24.7871 11.3784 22.2444 13.2511 20.9833C16.2898 22.8579 22.3036 26.1981 22.0492 24.5621C21.7948 22.9261 21.0245 18.0862 20.6712 15.8707C20.6712 15.8707 25.8652 10.5536 26.9252 9.73559C27.7732 9.08118 21.2012 8.23589 17.8091 7.89504C17.8091 7.89504 14.0991 0.53291 13.2511 0.0216505Z" fill="#F6C144"/>
</svg>
