<svg width="29" height="27" viewBox="0 0 29 27" fill="none" xmlns="http://www.w3.org/2000/svg">
<path d="M14.2511 1.02165C13.5727 0.612643 11.2124 6.10016 10.1171 8.89504C9.05706 9.91754 0.895023 8.89504 1.00102 10.7356C1.10702 12.5761 6.93706 16.8707 7.25506 17.1775C7.57306 17.4842 4.39304 25.9711 6.51305 25.8689C8.20907 25.7871 12.3784 23.2444 14.2511 21.9833C17.2898 23.8579 23.3036 27.1981 23.0492 25.5621C22.7948 23.9261 22.0245 19.0862 21.6712 16.8707C21.6712 16.8707 26.8652 11.5536 27.9252 10.7356C28.7732 10.0812 22.2012 9.23589 18.8091 8.89504C18.8091 8.89504 15.0991 1.53291 14.2511 1.02165Z" stroke="#F6C144" stroke-linecap="round"/>
</svg>
